# xmcd
#
# Track frame offsets: 
#        183
#        22823
#        35113
#        65390
#        79978
#        98130
#        112798
#        127180
#        148693
#        161433
#        188878
#        202188
#        215415
#        227515
#
# Disc length: 3216 seconds
#
# Revision: 3
# Processed by: cddbd v1.5.2PL0 Copyright (c) Steve Scherf et al.
# Submitted via: ExactAudioCopy v0.95b4
#
DISCID=c20c8e0e
DTITLE=Sonny Terry and Brownie McGhee - Drinking In The Blues
DYEAR=1993
DGENRE=Blues
TTITLE0=Drinking In The Blues
TTITLE1=Po-Boy
TTITLE2=Everybody's Blue
TTITLE3=Trouble In Mind
TTITLE4=I'm A Stranger Here
TTITLE5=Down By The Riverside
TTITLE6=Walk On
TTITLE7=Blues For The Lowlands
TTITLE8=Right On That Shore
TTITLE9=Blowin' The Fuses
TTITLE10=Daisy
TTITLE11=Doggin' My Heart Around
TTITLE12=Harmonica Hop
TTITLE13=Don't Dog Your Woman
EXTD=
EXTT0=
EXTT1=
EXTT2=
EXTT3=
EXTT4=
EXTT5=
EXTT6=
EXTT7=
EXTT8=
EXTT9=
EXTT10=
EXTT11=
EXTT12=
EXTT13=
PLAYORDER=
